<?xml version="1.0" encoding="UTF-8" ?>
<!DOCTYPE svg PUBLIC "-//W3C//DTD SVG 1.1//EN" "http://www.w3.org/Graphics/SVG/1.1/DTD/svg11.dtd">
<svg width="249pt" height="198pt" viewBox="0 0 249 198" version="1.1" xmlns="http://www.w3.org/2000/svg">
<g id="#fefdfeff">
</g>
<g id="#024c4bff">
<path fill="#024c4b" opacity="1.00" d=" M 109.01 6.99 C 113.25 3.95 119.22 3.51 123.69 6.32 C 134.69 12.96 145.68 19.63 156.52 26.52 C 166.48 33.27 163.98 46.94 162.65 57.09 C 161.73 49.45 154.64 45.79 148.70 42.35 C 139.46 36.11 129.75 30.62 120.34 24.66 C 118.07 22.97 114.94 22.99 112.65 24.62 C 104.46 29.76 96.26 34.88 88.23 40.27 C 86.23 41.78 82.25 42.96 81.23 39.76 C 79.67 33.66 80.14 25.70 85.97 21.92 C 93.52 16.75 101.38 12.04 109.01 6.99 Z" />
<path fill="#024c4b" opacity="1.00" d=" M 81.19 56.97 C 92.60 49.77 103.89 42.32 115.59 35.58 C 115.64 39.58 116.08 43.62 115.48 47.59 C 110.81 52.95 104.02 55.86 98.58 60.34 C 98.32 60.47 97.80 60.72 97.54 60.84 C 96.64 76.20 97.87 91.61 96.78 106.96 C 91.51 103.94 86.57 100.37 81.29 97.37 C 80.66 83.93 81.40 70.44 81.19 56.97 Z" />
<path fill="#024c4b" opacity="1.00" d=" M 128.54 89.69 C 132.28 84.47 139.18 81.16 140.06 74.26 C 139.93 74.94 139.68 76.30 139.55 76.98 C 147.68 82.03 155.76 87.15 163.97 92.08 C 172.28 96.53 167.67 107.50 168.71 115.00 C 155.22 106.73 141.65 98.54 128.54 89.69 Z" />
</g>
<g id="#052e2fff">
<path fill="#052e2f" opacity="1.00" d=" M 148.70 42.35 C 154.64 45.79 161.73 49.45 162.65 57.09 C 157.04 65.07 147.26 68.08 140.06 74.26 C 139.18 81.16 132.28 84.47 128.54 89.69 C 124.72 83.81 126.79 76.53 126.31 69.97 C 125.39 59.97 136.85 57.12 143.22 52.23 C 147.10 50.38 149.94 46.89 148.70 42.35 Z" />
<path fill="#052e2f" opacity="1.00" d=" M 2.45 167.40 C 2.52 156.14 2.37 144.88 2.52 133.62 C 10.13 134.47 18.94 131.60 25.61 136.38 C 31.46 141.27 29.25 151.63 22.23 154.34 C 24.91 158.65 27.90 162.78 30.16 167.35 C 27.70 167.40 25.24 167.43 22.77 167.47 C 18.75 162.70 17.46 152.68 9.27 154.78 C 9.24 159.00 9.38 163.22 8.95 167.42 C 6.78 167.40 4.61 167.40 2.45 167.40 M 9.29 139.31 C 9.32 142.78 9.32 146.25 9.29 149.73 C 12.64 149.64 16.04 150.01 19.34 149.32 C 22.95 147.43 23.40 141.51 19.58 139.60 C 16.19 138.99 12.71 139.35 9.29 139.31 Z" />
<path fill="#052e2f" opacity="1.00" d=" M 38.50 133.64 C 45.70 133.78 52.92 133.47 60.11 133.79 C 62.53 134.47 62.16 137.49 62.74 139.40 C 55.10 139.27 47.46 139.63 39.83 139.38 C 38.02 138.03 38.83 135.55 38.50 133.64 Z" />
<path fill="#052e2f" opacity="1.00" d=" M 73.28 133.78 C 75.66 133.72 78.03 133.67 80.41 133.59 C 85.89 141.30 90.99 149.28 96.43 157.03 C 96.58 149.23 96.53 141.43 96.50 133.63 C 98.74 133.65 100.97 133.68 103.21 133.72 C 103.28 144.95 103.32 156.18 103.25 167.41 C 100.83 167.43 98.40 167.45 95.98 167.45 C 90.69 159.84 85.52 152.15 80.31 144.49 C 79.62 152.10 79.71 159.76 79.79 167.40 C 77.61 167.38 75.43 167.37 73.25 167.34 C 73.29 156.15 73.07 144.96 73.28 133.78 Z" />
<path fill="#052e2f" opacity="1.00" d=" M 111.71 133.72 C 121.26 133.60 130.81 133.61 140.36 133.70 C 140.36 135.59 140.37 137.49 140.37 139.39 C 136.74 139.42 133.10 139.45 129.47 139.47 C 129.39 148.79 129.54 158.11 129.43 167.43 C 127.16 167.42 124.90 167.41 122.63 167.40 C 122.52 158.10 122.58 148.79 122.51 139.49 C 118.89 139.47 115.28 139.45 111.67 139.42 C 111.68 137.52 111.69 135.62 111.71 133.72 Z" />
<path fill="#052e2f" opacity="1.00" d=" M 149.37 160.01 C 149.23 151.22 149.26 142.42 149.48 133.64 C 151.56 133.64 153.64 133.64 155.73 133.61 C 156.38 142.48 155.43 151.54 156.65 160.35 C 161.24 163.35 167.94 160.85 173.33 161.66 C 173.32 163.56 173.31 165.47 173.30 167.37 C 167.84 167.34 162.39 167.58 156.93 167.36 C 153.07 167.26 149.30 164.01 149.37 160.01 Z" />
<path fill="#052e2f" opacity="1.00" d=" M 39.26 147.65 C 46.60 147.52 53.95 147.62 61.30 147.66 C 61.28 149.36 61.26 151.06 61.24 152.76 C 56.16 152.76 51.09 152.77 46.02 152.79 C 45.79 155.71 45.92 158.64 46.41 161.53 C 52.00 161.78 57.59 161.59 63.19 161.66 C 63.17 163.56 63.16 165.45 63.14 167.34 C 56.50 167.12 49.67 168.12 43.14 166.90 C 36.18 163.18 39.79 153.92 39.26 147.65 Z" />
</g>
<g id="#dbad48ff">
<path fill="#dbad48" opacity="1.00" d=" M 98.58 60.34 C 104.75 58.21 109.82 53.96 115.57 50.99 C 115.67 66.38 116.08 81.81 115.61 97.17 C 115.32 93.53 115.15 89.87 115.05 86.21 C 108.42 87.39 101.09 83.64 98.71 77.26 C 97.60 71.86 98.20 66.29 97.54 60.84 C 97.80 60.72 98.32 60.47 98.58 60.34 Z" />
</g>
<g id="#cb9a2fff">
<path fill="#cb9a2f" opacity="1.00" d=" M 96.78 106.96 C 97.87 91.61 96.64 76.20 97.54 60.84 C 98.20 66.29 97.60 71.86 98.71 77.26 C 101.09 83.64 108.42 87.39 115.05 86.21 C 115.15 89.87 115.32 93.53 115.61 97.17 C 109.16 100.47 103.57 105.31 96.71 107.81 L 96.78 106.96 Z" />
<path fill="#cb9a2f" opacity="1.00" d=" M 223.38 133.50 C 230.86 132.14 238.94 135.60 242.62 142.34 C 245.85 148.64 245.32 157.11 240.48 162.48 C 232.59 170.91 216.59 169.37 211.09 158.97 C 205.17 149.12 211.37 134.26 223.38 133.50 M 222.32 139.37 C 213.08 142.98 213.96 157.53 222.63 161.33 C 229.18 165.06 238.09 159.42 237.76 151.96 C 238.92 143.90 230.12 136.03 222.32 139.37 Z" />
<path fill="#cb9a2f" opacity="1.00" d=" M 173.19 133.64 C 175.49 133.60 177.80 133.46 180.10 133.70 C 183.98 138.08 185.83 143.88 189.52 148.44 C 192.16 143.41 194.88 138.42 197.85 133.57 C 200.23 133.62 202.61 133.66 205.00 133.71 C 201.55 139.65 197.90 145.47 194.39 151.38 C 191.31 156.18 193.05 162.12 192.60 167.47 C 190.37 167.49 188.14 167.52 185.91 167.56 C 185.57 163.18 186.20 158.72 185.43 154.39 C 181.90 147.17 176.89 140.78 173.19 133.64 Z" />
</g>
<g id="#90a6a6ff">
</g>
</svg>
